HIERARCHY
ROOT newVegas:Hips
{
	OFFSET 0.000000 96.479958 0.000000
	CHANNELS 6 Xposition Yposition Zposition Xrotation Yrotation Zrotation
	JOINT newVegas:Pelvis
	{
		OFFSET 0.000000 0.000000 0.000000
		CHANNELS 3 Xrotation Yrotation Zrotation
		JOINT newVegas:LeftUpLeg
		{
			OFFSET 18.735201 -5.666702 -4.541200
			CHANNELS 3 Xrotation Yrotation Zrotation
			JOINT newVegas:LeftLeg
			{
				OFFSET -0.021200 -31.938179 0.493100
				CHANNELS 3 Xrotation Yrotation Zrotation
				JOINT newVegas:LeftFoot
				{
					OFFSET 0.021200 -31.938179 -4.336299
					CHANNELS 3 Xrotation Yrotation Zrotation
					JOINT newVegas:LeftToeBase
					{
						OFFSET 0.943001 -26.722000 15.023500
						CHANNELS 3 Xrotation Yrotation Zrotation
						End Site
						{
							OFFSET 0.000000 30.670183 0.000000
						}
					}
				}
				JOINT newVegas:Left_PantLeg
				{
					OFFSET 0.663870 -9.044666 -1.108900
					CHANNELS 3 Xrotation Yrotation Zrotation
					End Site
					{
						OFFSET 1.415995 20.635357 0.000000
					}
				}
			}
		}
		JOINT newVegas:RightUpLeg
		{
			OFFSET -18.735201 -5.666702 -4.541200
			CHANNELS 3 Xrotation Yrotation Zrotation
			JOINT newVegas:RightLeg
			{
				OFFSET 0.018946 -31.938133 0.493100
				CHANNELS 3 Xrotation Yrotation Zrotation
				JOINT newVegas:RightFoot
				{
					OFFSET -0.018946 -31.938126 -4.336299
					CHANNELS 3 Xrotation Yrotation Zrotation
					JOINT newVegas:RightToeBase
					{
						OFFSET -0.943001 -26.722004 15.023500
						CHANNELS 3 Xrotation Yrotation Zrotation
						End Site
						{
							OFFSET 0.000000 30.670187 0.000000
						}
					}
				}
				JOINT newVegas:Right_PantLeg
				{
					OFFSET -0.661674 -9.044716 -1.108900
					CHANNELS 3 Xrotation Yrotation Zrotation
					End Site
					{
						OFFSET -1.415958 20.635269 0.000000
					}
				}
			}
		}
	}
	JOINT newVegas:Spine
	{
		OFFSET 0.000000 10.199997 -0.299500
		CHANNELS 3 Xrotation Yrotation Zrotation
		JOINT newVegas:Spine1
		{
			OFFSET 0.000000 11.900002 -1.516600
			CHANNELS 3 Xrotation Yrotation Zrotation
			JOINT newVegas:Spine2
			{
				OFFSET 0.000000 13.600006 -2.842500
				CHANNELS 3 Xrotation Yrotation Zrotation
				JOINT newVegas:Neck
				{
					OFFSET 0.000000 9.624100 -2.890100
					CHANNELS 3 Xrotation Yrotation Zrotation
					JOINT newVegas:Head
					{
						OFFSET 0.000000 14.068802 -1.351900
						CHANNELS 3 Xrotation Yrotation Zrotation
						JOINT newVegas:Hair_Back
						{
							OFFSET 0.000000 3.231903 -17.524799
							CHANNELS 3 Xrotation Yrotation Zrotation
							End Site
							{
								OFFSET 0.000000 19.849884 0.000000
							}
						}
						JOINT newVegas:Hair_Front
						{
							OFFSET 0.000000 31.260406 4.573800
							CHANNELS 3 Xrotation Yrotation Zrotation
							JOINT newVegas:Hair_Front1
							{
								OFFSET 0.000000 2.284103 11.993300
								CHANNELS 3 Xrotation Yrotation Zrotation
								JOINT newVegas:Hair_Front2
								{
									OFFSET 0.000000 2.284103 11.993300
									CHANNELS 3 Xrotation Yrotation Zrotation
									End Site
									{
										OFFSET 0.000000 12.208862 0.000000
									}
								}
							}
						}
						JOINT newVegas:Jowel
						{
							OFFSET 0.000000 -7.458206 6.864100
							CHANNELS 3 Xrotation Yrotation Zrotation
							End Site
							{
								OFFSET 0.000000 19.849884 0.000000
							}
						}
					}
				}
				JOINT newVegas:LeftShoulder
				{
					OFFSET 15.263000 10.923401 -0.547700
					CHANNELS 3 Xrotation Yrotation Zrotation
					JOINT newVegas:LeftArm
					{
						OFFSET 25.438599 -2.830597 -13.032500
						CHANNELS 3 Xrotation Yrotation Zrotation
						JOINT newVegas:LeftForeArm
						{
							OFFSET 29.960503 0.000000 0.000000
							CHANNELS 3 Xrotation Yrotation Zrotation
							JOINT newVegas:LeftHand
							{
								OFFSET 27.849251 0.000000 0.000000
								CHANNELS 3 Xrotation Yrotation Zrotation
								JOINT newVegas:LeftHandThumb1
								{
									OFFSET 4.487587 -3.305161 6.305391
									CHANNELS 3 Xrotation Yrotation Zrotation
									JOINT newVegas:LeftHandThumb2
									{
										OFFSET 5.480453 -3.164139 3.164143
										CHANNELS 3 Xrotation Yrotation Zrotation
										JOINT newVegas:LeftHandThumb3
										{
											OFFSET 5.159721 -2.978973 2.978967
											CHANNELS 3 Xrotation Yrotation Zrotation
											End Site
											{
												OFFSET 2.494507 5.926697 1.738678
											}
										}
									}
								}
								JOINT newVegas:LeftHandIndex1
								{
									OFFSET 18.578728 -0.527832 5.208049
									CHANNELS 3 Xrotation Yrotation Zrotation
									JOINT newVegas:LeftHandIndex2
									{
										OFFSET 3.192009 0.000000 0.000000
										CHANNELS 3 Xrotation Yrotation Zrotation
										JOINT newVegas:LeftHandIndex3
										{
											OFFSET 3.835129 0.000000 0.000000
											CHANNELS 3 Xrotation Yrotation Zrotation
											End Site
											{
												OFFSET -0.034599 3.816971 0.371180
											}
										}
									}
								}
								JOINT newVegas:LeftHandMiddle1
								{
									OFFSET 18.476105 0.000000 0.000000
									CHANNELS 3 Xrotation Yrotation Zrotation
									JOINT newVegas:LeftHandMiddle2
									{
										OFFSET 3.324875 0.000000 0.000000
										CHANNELS 3 Xrotation Yrotation Zrotation
										JOINT newVegas:LeftHandMiddle3
										{
											OFFSET 4.596550 0.000000 0.000000
											CHANNELS 3 Xrotation Yrotation Zrotation
											End Site
											{
												OFFSET 0.057701 4.578827 0.399218
											}
										}
									}
								}
								JOINT newVegas:LeftHandRing1
								{
									OFFSET 17.732719 0.121887 -4.201567
									CHANNELS 3 Xrotation Yrotation Zrotation
									JOINT newVegas:LeftHandRing2
									{
										OFFSET 2.733170 0.000000 0.000000
										CHANNELS 3 Xrotation Yrotation Zrotation
										JOINT newVegas:LeftHandRing3
										{
											OFFSET 3.178268 0.000000 0.000000
											CHANNELS 3 Xrotation Yrotation Zrotation
											End Site
											{
												OFFSET 0.119102 3.170624 0.185394
											}
										}
									}
								}
								JOINT newVegas:LeftHandPinky1
								{
									OFFSET 15.989624 -0.606689 -7.535461
									CHANNELS 3 Xrotation Yrotation Zrotation
									JOINT newVegas:LeftHandPinky2
									{
										OFFSET 2.538986 0.000000 0.000000
										CHANNELS 3 Xrotation Yrotation Zrotation
										JOINT newVegas:LeftHandPinky3
										{
											OFFSET 2.593102 0.000000 0.000000
											CHANNELS 3 Xrotation Yrotation Zrotation
											End Site
											{
												OFFSET -0.150902 2.584198 0.152708
											}
										}
									}
								}
							}
							JOINT newVegas:Left_Sleeve
							{
								OFFSET 0.267448 -0.649796 0.577675
								CHANNELS 3 Xrotation Yrotation Zrotation
								End Site
								{
									OFFSET 0.000000 15.991241 0.000000
								}
							}
							JOINT newVegas:Left_CapeC
							{
								OFFSET 15.715958 -8.608795 -6.935905
								CHANNELS 3 Xrotation Yrotation Zrotation
								JOINT newVegas:Left_CapeC1
								{
									OFFSET 0.000000 -8.688499 0.000000
									CHANNELS 3 Xrotation Yrotation Zrotation
									End Site
									{
										OFFSET 0.000000 8.688499 0.000000
									}
								}
							}
						}
						JOINT newVegas:Left_CapeB
						{
							OFFSET 26.118385 -8.608795 -7.079235
							CHANNELS 3 Xrotation Yrotation Zrotation
							JOINT newVegas:Left_CapeB1
							{
								OFFSET 0.000000 -8.688499 0.000000
								CHANNELS 3 Xrotation Yrotation Zrotation
								End Site
								{
									OFFSET 0.000000 8.688499 0.000000
								}
							}
						}
						JOINT newVegas:Left_CapeA
						{
							OFFSET 5.115639 -8.608795 -10.395809
							CHANNELS 3 Xrotation Yrotation Zrotation
							JOINT newVegas:Left_CapeA1
							{
								OFFSET 0.000000 -8.688499 0.000000
								CHANNELS 3 Xrotation Yrotation Zrotation
								End Site
								{
									OFFSET 0.000000 8.688499 0.000000
								}
							}
						}
					}
				}
				JOINT newVegas:RightShoulder
				{
					OFFSET -15.263000 10.923401 -0.547700
					CHANNELS 3 Xrotation Yrotation Zrotation
					JOINT newVegas:RightArm
					{
						OFFSET -25.438599 -2.830597 -13.032500
						CHANNELS 3 Xrotation Yrotation Zrotation
						JOINT newVegas:RightForeArm
						{
							OFFSET -29.960503 0.000000 0.000000
							CHANNELS 3 Xrotation Yrotation Zrotation
							JOINT newVegas:RightHand
							{
								OFFSET -27.849251 0.000000 0.000000
								CHANNELS 3 Xrotation Yrotation Zrotation
								JOINT newVegas:RightHandThumb1
								{
									OFFSET -4.487587 -3.305161 6.305391
									CHANNELS 3 Xrotation Yrotation Zrotation
									JOINT newVegas:RightHandThumb2
									{
										OFFSET -5.480453 -3.164139 3.164143
										CHANNELS 3 Xrotation Yrotation Zrotation
										JOINT newVegas:RightHandThumb3
										{
											OFFSET -5.159721 -2.978973 2.978967
											CHANNELS 3 Xrotation Yrotation Zrotation
											End Site
											{
												OFFSET -2.494507 5.926697 1.738678
											}
										}
									}
								}
								JOINT newVegas:RightHandIndex1
								{
									OFFSET -18.578728 -0.527832 5.208049
									CHANNELS 3 Xrotation Yrotation Zrotation
									JOINT newVegas:RightHandIndex2
									{
										OFFSET -3.192009 0.000000 0.000000
										CHANNELS 3 Xrotation Yrotation Zrotation
										JOINT newVegas:RightHandIndex3
										{
											OFFSET -3.835129 0.000000 0.000000
											CHANNELS 3 Xrotation Yrotation Zrotation
											End Site
											{
												OFFSET 0.034599 3.816971 0.371180
											}
										}
									}
								}
								JOINT newVegas:RightHandMiddle1
								{
									OFFSET -18.476105 0.000000 0.000000
									CHANNELS 3 Xrotation Yrotation Zrotation
									JOINT newVegas:RightHandMiddle2
									{
										OFFSET -3.324875 0.000000 0.000000
										CHANNELS 3 Xrotation Yrotation Zrotation
										JOINT newVegas:RightHandMiddle3
										{
											OFFSET -4.596550 0.000000 0.000000
											CHANNELS 3 Xrotation Yrotation Zrotation
											End Site
											{
												OFFSET -0.057701 4.578827 0.399218
											}
										}
									}
								}
								JOINT newVegas:RightHandRing1
								{
									OFFSET -17.732719 0.121887 -4.201567
									CHANNELS 3 Xrotation Yrotation Zrotation
									JOINT newVegas:RightHandRing2
									{
										OFFSET -2.733170 0.000000 0.000000
										CHANNELS 3 Xrotation Yrotation Zrotation
										JOINT newVegas:RightHandRing3
										{
											OFFSET -3.178268 0.000000 0.000000
											CHANNELS 3 Xrotation Yrotation Zrotation
											End Site
											{
												OFFSET -0.119102 3.170624 0.185394
											}
										}
									}
								}
								JOINT newVegas:RightHandPinky1
								{
									OFFSET -15.989624 -0.606689 -7.535461
									CHANNELS 3 Xrotation Yrotation Zrotation
									JOINT newVegas:RightHandPinky2
									{
										OFFSET -2.538986 0.000000 0.000000
										CHANNELS 3 Xrotation Yrotation Zrotation
										JOINT newVegas:RightHandPinky3
										{
											OFFSET -2.593102 0.000000 0.000000
											CHANNELS 3 Xrotation Yrotation Zrotation
											End Site
											{
												OFFSET 0.150902 2.584198 0.152708
											}
										}
									}
								}
							}
							JOINT newVegas:Right_CapeC
							{
								OFFSET -15.715958 -8.608795 -6.935905
								CHANNELS 3 Xrotation Yrotation Zrotation
								JOINT newVegas:Right_CapeC1
								{
									OFFSET 0.000000 -8.688499 0.000000
									CHANNELS 3 Xrotation Yrotation Zrotation
									End Site
									{
										OFFSET 0.000000 8.688499 0.000000
									}
								}
							}
							JOINT newVegas:Right_Sleeve
							{
								OFFSET -0.267448 -0.649994 0.577675
								CHANNELS 3 Xrotation Yrotation Zrotation
								End Site
								{
									OFFSET 0.000000 15.991302 0.000000
								}
							}
						}
						JOINT newVegas:Right_CapeA
						{
							OFFSET -5.115540 -8.608795 -10.395824
							CHANNELS 3 Xrotation Yrotation Zrotation
							JOINT newVegas:Right_CapeA1
							{
								OFFSET 0.000000 -8.688499 0.000000
								CHANNELS 3 Xrotation Yrotation Zrotation
								End Site
								{
									OFFSET 0.000000 8.688499 0.000000
								}
							}
						}
						JOINT newVegas:Right_CapeB
						{
							OFFSET -26.118187 -8.608795 -7.079266
							CHANNELS 3 Xrotation Yrotation Zrotation
							JOINT newVegas:Right_CapeB1
							{
								OFFSET 0.000000 -8.688499 0.000000
								CHANNELS 3 Xrotation Yrotation Zrotation
								End Site
								{
									OFFSET 0.000000 8.688499 0.000000
								}
							}
						}
					}
				}
				JOINT newVegas:Left_Collar
				{
					OFFSET 18.625099 8.655502 8.828100
					CHANNELS 3 Xrotation Yrotation Zrotation
					JOINT newVegas:Left_Collar1
					{
						OFFSET 14.783401 10.540405 -1.259500
						CHANNELS 3 Xrotation Yrotation Zrotation
						End Site
						{
							OFFSET 0.000000 18.199875 0.000000
						}
					}
				}
				JOINT newVegas:Collar_Back
				{
					OFFSET 0.000000 15.630707 -20.132601
					CHANNELS 3 Xrotation Yrotation Zrotation
					End Site
					{
						OFFSET 0.000000 22.523010 0.000000
					}
				}
				JOINT newVegas:Left_Peck
				{
					OFFSET 17.239599 -5.132599 25.482599
					CHANNELS 3 Xrotation Yrotation Zrotation
					End Site
					{
						OFFSET 0.000000 22.523010 0.000000
					}
				}
				JOINT newVegas:Right_Peck
				{
					OFFSET -17.239599 -5.132202 25.482599
					CHANNELS 3 Xrotation Yrotation Zrotation
					End Site
					{
						OFFSET 0.000000 22.523010 0.000000
					}
				}
				JOINT newVegas:Right_Collar
				{
					OFFSET -18.625099 8.655792 8.828100
					CHANNELS 3 Xrotation Yrotation Zrotation
					JOINT newVegas:Right_Collar1
					{
						OFFSET -14.783401 10.539993 -1.259500
						CHANNELS 3 Xrotation Yrotation Zrotation
						End Site
						{
							OFFSET 0.000000 18.199631 0.000000
						}
					}
				}
			}
		}
		JOINT newVegas:Belly
		{
			OFFSET 0.000000 -6.540398 9.014299
			CHANNELS 3 Xrotation Yrotation Zrotation
			End Site
			{
				OFFSET 0.000000 11.566666 0.000000
			}
		}
	}
	JOINT newVegas:ElvisFacialAnim_Joint
	{
		OFFSET 1.000000 -95.330101 -8.825800
		CHANNELS 3 Xrotation Yrotation Zrotation
		End Site
		{
			OFFSET 0.000000 35.315800 0.000000
		}
	}
}
MOTION
Frames: 4
Frame Time: 0.033333
-2.630751 82.746208 2.739440 -6.077189 -42.927684 -3.741979 -0.000000 0.000001 -0.000000 -44.948136 -1.310034 18.045734 54.511948 -10.807719 -0.266681 -6.500027 -3.487420 -11.885810 -0.000000 0.000000 -0.000000 -0.000001 -0.000005 -0.000000 -3.694543 -10.646330 -22.024730 49.940226 -5.556034 -0.127126 -35.592355 -9.662435 23.991543 0.000000 0.000002 -0.000000 -0.000004 0.000000 -0.000002 5.854313 4.510908 -1.500635 11.836540 9.037614 -3.083971 11.836534 9.037610 -3.083967 -0.573955 -0.168768 0.033027 -0.573957 -0.168771 0.033026 -0.000002 -0.000001 0.000001 -0.573950 -0.168772 0.033024 -0.573935 -0.168768 0.033025 -0.000002 0.000001 -0.000000 -0.000002 -0.000001 0.000001 1.392485 -0.696027 -7.878154 -17.225691 0.898668 -63.191503 0.000012 -42.610583 0.000019 11.900954 -1.704051 21.975143 38.404286 -1.269676 14.611658 3.631944 6.093804 -0.671471 0.000000 -0.000003 -0.000005 0.221384 -3.166077 -9.481594 0.086340 1.003095 -9.837818 -0.000002 0.000002 -0.000000 0.436857 5.174661 -8.894409 0.224010 1.606081 -15.879225 0.000004 -0.000007 0.000005 2.827862 12.581942 -16.002882 0.312132 1.888468 -18.768841 -0.000001 0.000003 -0.000002 2.480833 12.169199 -24.496846 0.246238 1.682227 -16.654079 -0.000002 0.000000 0.000001 -0.000001 0.000002 -0.000000 -0.000001 0.000002 -0.000000 -0.000002 0.000002 -0.000000 0.000002 0.000000 0.000000 0.000002 0.000000 0.000000 0.000002 0.000000 0.000000 0.000002 -0.000000 0.000000 1.410939 9.461531 9.792482 -1.910867 -22.605655 59.287408 -0.000001 37.046000 0.000021 -7.499295 9.436038 4.506717 -16.380293 1.669845 -6.671175 11.172350 -26.973556 -3.853802 0.000001 0.000000 0.000001 0.245360 -4.322142 6.246045 0.048900 -0.673858 8.301492 -0.000002 -0.000000 -0.000001 0.291012 -4.821895 5.957062 0.384912 -1.855652 23.435258 -0.000000 -0.000001 -0.000002 0.204258 -3.829863 7.019414 0.413575 -1.920372 24.304899 0.000001 -0.000001 -0.000002 -0.701312 -2.585897 14.662900 0.245834 -1.494551 18.679939 -0.000002 0.000002 -0.000001 0.000004 0.000001 -0.000002 0.000002 0.000000 -0.000001 0.000004 0.000001 -0.000002 -0.000001 0.000000 -0.000000 -0.000001 0.000001 -0.000000 -0.000001 0.000000 -0.000000 -0.000001 0.000001 -0.000000 0.000001 -0.000002 -0.000000 0.000001 -0.000002 -0.000000 0.000001 -0.000002 -0.000000 0.000001 -0.000002 -0.000000 0.000001 -0.000002 -0.000000 0.000001 -0.000002 -0.000000 0.000001 -0.000002 -0.000000 0.000000 -0.000000 0.000000 -0.000000 0.000001 -0.000000 
-2.619799 82.727966 2.726114 -6.035546 -42.922196 -3.735074 0.000000 0.000000 0.000000 -45.029931 -1.322001 18.067355 54.558475 -10.808902 -0.249137 -6.505565 -3.494284 -11.920040 0.000000 0.000000 0.000000 0.000000 -0.000002 0.000002 -3.758704 -10.625149 -22.002355 49.997555 -5.568342 -0.126439 -35.620963 -9.622254 24.000414 -0.000000 -0.000000 -0.000000 -0.000002 0.000000 -0.000001 5.842023 4.507773 -1.493778 11.855662 9.034650 -3.092150 11.855682 9.034732 -3.092142 -0.572779 -0.167878 0.034334 -0.572779 -0.167882 0.034334 -0.000000 -0.000001 0.000001 -0.572766 -0.167874 0.034334 -0.572699 -0.167872 0.034333 -0.000000 -0.000001 -0.000000 -0.000000 -0.000001 0.000001 1.392453 -0.688860 -7.865823 -17.250643 0.900705 -63.168731 -0.000009 -42.566190 -0.000024 11.852271 -1.716329 22.012262 38.404289 -1.269674 14.611665 3.631949 6.093787 -0.671465 0.000000 -0.000001 -0.000004 0.221387 -3.166083 -9.481591 0.086336 1.003109 -9.837812 -0.000002 -0.000000 -0.000000 0.436858 5.174665 -8.894421 0.224011 1.606071 -15.879217 -0.000003 -0.000002 0.000001 2.827862 12.581947 -16.002874 0.312135 1.888462 -18.768853 0.000001 -0.000001 0.000000 2.480836 12.169211 -24.496839 0.246240 1.682230 -16.654081 0.000002 0.000002 -0.000003 0.000000 0.000002 -0.000000 0.000000 0.000002 -0.000000 -0.000001 0.000002 -0.000000 -0.000002 -0.000001 -0.000002 -0.000001 -0.000001 -0.000003 -0.000002 -0.000001 -0.000002 -0.000001 -0.000001 -0.000003 1.410953 9.464040 9.790956 -1.972393 -22.595405 59.287852 -0.000014 36.928121 0.000017 -7.482546 9.492470 4.516469 -16.380284 1.669847 -6.671173 11.172356 -26.973551 -3.853773 -0.000000 -0.000001 -0.000000 0.245355 -4.322143 6.246050 0.048911 -0.673863 8.301504 -0.000004 -0.000001 -0.000001 0.291010 -4.821895 5.957061 0.384921 -1.855656 23.435255 0.000001 0.000001 -0.000000 0.204268 -3.829863 7.019399 0.413574 -1.920367 24.304899 0.000000 -0.000001 0.000000 -0.701305 -2.585898 14.662896 0.245829 -1.494550 18.679936 -0.000002 -0.000000 -0.000001 0.000003 -0.000000 0.000001 0.000001 -0.000000 -0.000001 0.000003 -0.000000 0.000001 -0.000001 0.000003 -0.000000 -0.000001 0.000003 0.000001 -0.000001 0.000003 -0.000000 -0.000001 0.000003 0.000001 -0.000000 -0.000001 -0.000001 -0.000000 -0.000001 -0.000001 -0.000000 -0.000001 -0.000001 -0.000000 -0.000001 -0.000001 -0.000000 -0.000001 -0.000001 -0.000000 -0.000001 -0.000001 -0.000000 -0.000001 -0.000001 0.000000 0.000001 0.000000 0.000000 0.000000 0.000000 
-2.606681 82.709229 2.711216 -6.006243 -42.910964 -3.739313 -0.000000 0.000002 -0.000000 -45.103386 -1.338370 18.084910 54.611269 -10.794030 -0.235585 -6.529537 -3.522509 -11.928415 0.000000 0.000003 0.000000 -0.000001 0.000000 -0.000000 -3.802812 -10.601640 -21.968122 50.046726 -5.569154 -0.128290 -35.637786 -9.628877 24.004305 0.000000 -0.000000 -0.000000 -0.000003 -0.000001 -0.000002 5.840671 4.503843 -1.478380 11.875279 9.030903 -3.100812 11.875404 9.031032 -3.100746 -0.571509 -0.168089 0.035917 -0.571527 -0.168081 0.035912 0.000000 -0.000001 0.000001 -0.571444 -0.168082 0.035917 -0.571508 -0.168081 0.035915 0.000001 -0.000001 0.000001 0.000000 -0.000001 0.000000 1.393091 -0.673505 -7.857936 -17.295007 0.917596 -63.166559 -0.000020 -42.524894 -0.000054 11.837659 -1.753403 22.050557 38.404282 -1.269667 14.611673 3.631952 6.093795 -0.671477 -0.000000 -0.000001 -0.000003 0.221392 -3.166079 -9.481591 0.086323 1.003093 -9.837825 -0.000002 0.000000 0.000001 0.436854 5.174677 -8.894407 0.224002 1.606069 -15.879247 0.000003 0.000001 0.000001 2.827855 12.581938 -16.002891 0.312142 1.888475 -18.768810 -0.000002 0.000001 -0.000000 2.480825 12.169210 -24.496839 0.246244 1.682233 -16.654067 -0.000002 -0.000001 -0.000003 -0.000002 0.000002 -0.000002 -0.000002 0.000002 -0.000002 -0.000003 0.000002 -0.000002 -0.000000 -0.000001 0.000001 0.000000 -0.000001 0.000001 -0.000000 -0.000001 0.000001 0.000000 -0.000001 0.000001 1.410643 9.467213 9.790712 -2.035831 -22.595560 59.282354 -0.000007 36.836542 0.000006 -7.486795 9.534416 4.533696 -16.380284 1.669845 -6.671162 11.172363 -26.973556 -3.853782 0.000002 -0.000002 -0.000002 0.245360 -4.322138 6.246034 0.048905 -0.673866 8.301516 -0.000002 0.000000 0.000001 0.291013 -4.821898 5.957060 0.384914 -1.855652 23.435267 0.000001 0.000002 -0.000000 0.204270 -3.829866 7.019404 0.413567 -1.920358 24.304893 -0.000002 -0.000001 -0.000000 -0.701311 -2.585891 14.662898 0.245824 -1.494553 18.679927 0.000000 -0.000002 -0.000002 0.000000 0.000000 0.000001 0.000000 0.000000 0.000003 0.000000 0.000000 0.000001 0.000001 0.000002 0.000003 0.000001 0.000003 0.000003 0.000001 0.000002 0.000003 0.000001 0.000003 0.000003 0.000001 -0.000001 0.000001 0.000001 -0.000001 0.000001 0.000001 -0.000001 0.000001 0.000001 -0.000001 0.000001 0.000001 -0.000001 0.000001 0.000001 -0.000001 0.000001 0.000001 -0.000001 0.000001 -0.000000 -0.000002 0.000000 -0.000000 0.000002 -0.000000 
-2.590222 82.692993 2.695615 -5.992767 -42.895897 -3.755527 -0.000000 -0.000001 -0.000000 -45.162686 -1.349901 18.090207 54.666485 -10.765453 -0.224664 -6.573588 -3.575962 -11.879031 -0.000000 -0.000000 -0.000000 -0.000000 -0.000000 0.000003 -3.828997 -10.576142 -21.928321 50.085910 -5.576015 -0.131283 -35.631574 -9.661857 24.012850 -0.000000 0.000000 0.000000 0.000000 -0.000002 0.000000 5.850234 4.503157 -1.457111 11.898102 9.028579 -3.106146 11.898266 9.028846 -3.105969 -0.570376 -0.169193 0.036607 -0.570378 -0.169199 0.036606 0.000001 0.000001 -0.000000 -0.570447 -0.169195 0.036608 -0.570313 -0.169172 0.036603 0.000002 0.000001 0.000001 0.000001 0.000001 -0.000000 1.393522 -0.659059 -7.854385 -17.367204 0.971930 -63.213305 -0.000005 -42.479556 0.000002 11.914929 -1.822852 22.103216 38.404279 -1.269656 14.611679 3.631956 6.093756 -0.671480 0.000003 -0.000000 -0.000003 0.221395 -3.166062 -9.481570 0.086328 1.003091 -9.837825 -0.000002 -0.000001 0.000003 0.436857 5.174678 -8.894394 0.224006 1.606088 -15.879230 -0.000002 -0.000002 0.000001 2.827855 12.581949 -16.002867 0.312144 1.888456 -18.768836 -0.000002 0.000001 -0.000000 2.480835 12.169204 -24.496835 0.246240 1.682231 -16.654064 -0.000004 -0.000003 -0.000000 -0.000000 -0.000000 -0.000001 -0.000000 -0.000000 -0.000001 -0.000001 -0.000000 -0.000001 -0.000001 -0.000001 0.000000 -0.000001 -0.000001 0.000000 -0.000001 -0.000001 0.000000 -0.000001 -0.000001 -0.000000 1.410764 9.470222 9.788321 -2.159259 -22.676452 59.275790 0.000006 36.754529 -0.000031 -7.402416 9.579579 4.573274 -16.380296 1.669848 -6.671176 11.172346 -26.973549 -3.853799 0.000004 0.000001 -0.000000 0.245363 -4.322147 6.246048 0.048906 -0.673867 8.301527 -0.000001 0.000000 -0.000000 0.291008 -4.821895 5.957053 0.384917 -1.855660 23.435257 0.000000 0.000002 0.000001 0.204265 -3.829861 7.019391 0.413568 -1.920371 24.304892 -0.000002 -0.000001 -0.000002 -0.701313 -2.585887 14.662879 0.245825 -1.494554 18.679958 0.000000 0.000001 0.000001 -0.000001 0.000001 0.000000 -0.000001 0.000001 -0.000002 -0.000001 0.000001 0.000000 -0.000001 0.000003 0.000003 -0.000001 0.000003 0.000003 -0.000001 0.000003 0.000003 -0.000001 0.000003 0.000003 0.000000 -0.000002 0.000001 0.000000 -0.000002 0.000001 0.000000 -0.000002 0.000001 0.000000 -0.000002 0.000001 0.000000 -0.000002 0.000001 0.000000 -0.000002 0.000001 0.000000 -0.000002 0.000001 -0.000000 -0.000003 0.000000 -0.000000 -0.000001 -0.000000 
